<svg width="2552" height="836" viewBox="0 0 2552 836" fill="none" xmlns="http://www.w3.org/2000/svg">
<path d="M254.211 555.315C254.211 555.315 265.879 595.877 296.44 595.877C338.113 595.877 336.446 513.641 378.675 513.641C420.904 513.641 420.349 595.877 460.911 595.877C501.473 595.877 504.251 513.641 545.369 513.641C572.04 513.641 588.015 555.037 588.015 555.037M254.211 479.886H336.863V397.65H420.557V479.886H503.209V397.65H586.417M254.905 342.642L337.141 260.406V342.642L420.348 260.406V342.642L503.001 260.406V342.642L585.236 260.406M770.224 250.249L799.435 228.776M481.211 101.067L502.192 10.7891M151.301 206.805L18.6572 128.273M100.528 528.16L10.7782 531.317M260.906 738.224L197.561 824.748M765.26 646.294L827.295 682.74M686.086 419.043C686.086 565.422 567.422 684.085 421.043 684.085C274.664 684.085 156 565.422 156 419.043C156 272.664 274.664 154 421.043 154C567.422 154 686.086 272.664 686.086 419.043Z" stroke="url(#paint0_linear_418_461)" stroke-width="21" stroke-linecap="round"/>
<path d="M858.351 169.702C864.276 166.247 869.037 161.58 874.629 157.83C870.678 161.641 865.476 164.533 861.478 168.261C853.504 175.696 845.463 183.356 838.09 191.37C817.005 214.287 793.446 236.713 769.114 256.124C757.217 265.615 746.55 276.678 735.283 286.935C730.753 291.059 724.592 295.272 721.275 300.462C719.506 303.231 730.428 296.854 731.468 296.141C739.024 290.964 747.56 285.565 756.045 282.113C758.12 281.269 768.126 276.461 763.299 282.677C755.709 292.449 743.805 300.045 734.283 307.727C703.387 332.651 671.631 356.402 639.793 380.059C638.056 381.349 629.716 384.656 634.853 382.751C640.356 380.71 645.348 377.282 650.861 375.111C677.942 364.446 706.37 357.386 734.22 349.122C753.34 343.449 771.817 335.659 791.064 330.272C805.044 326.359 819.265 323.182 833.337 319.626C847.124 316.142 858.935 308.848 872.109 303.844C874.74 302.845 864.618 310.323 863.041 311.484C856.464 316.327 849.836 320.93 843.093 325.512C838.094 328.909 845.76 326.055 847.345 325.262C863.645 317.1 881.064 309.451 898.06 302.905C923.239 293.207 948.332 282.615 974.54 275.913C988.481 272.349 1002.5 267.507 1016.75 265.33C1027.9 263.626 1039.03 263.312 1049.96 260.069C1058.78 257.45 1067.74 253.205 1076.72 251.365C1079.79 250.737 1080.63 251.334 1077.85 253.369C1068.54 260.179 1058.16 269.66 1050.46 278.168C1045.79 283.326 1040.93 287.943 1036.95 293.699C1035.35 296.01 1036.25 294.41 1038.08 293.887C1043.28 292.397 1048.74 289.162 1053.58 286.059C1086.42 265.012 991.098 332.772 959.907 356.198C935.851 374.267 911.145 391.427 886.679 408.929C874.039 417.97 861.341 426.918 848.721 435.982C842.639 440.351 834.894 448.295 827.584 450.386C822.209 451.924 831.958 441.833 833.275 439.928C834.966 437.482 835.683 436.444 836.652 433.728C838.635 428.165 844.269 424.917 847.095 420.201C850.092 415.199 838.071 427.601 833.275 430.91C823.117 437.918 813.961 445.979 804.071 453.267C794.027 460.669 783.638 467.825 773.304 474.81C764.837 480.534 757.533 487.711 749.166 493.472C741.828 498.524 734.492 503.983 726.903 508.627C725.42 509.535 720.747 512.685 722.964 508.69C725.005 505.011 729.788 501.856 732.782 498.858C738.73 492.901 744.83 487.255 750.542 481.072C752.075 479.412 757.891 472.049 757.17 472.681C751.488 477.66 744.341 481.614 738.222 486.082C722.598 497.491 706.616 508.146 691.134 519.649C682.691 525.923 675.618 534.125 667.621 540.942C656.202 550.674 644.845 560.475 633.414 570.187C602.508 596.449 573.85 625.334 542.927 651.537C515.611 674.684 488.856 698.681 460.381 720.424C460.221 720.547 449 727.173 449 723.994C449 723.564 454.068 718.354 454.566 717.794C466.003 704.908 479.975 695.099 492.774 683.726C513.813 665.031 532.99 644.43 554.121 625.861C578.715 604.247 602.893 582.285 628.099 561.357C654.944 539.069 683.453 518.199 711.082 496.854C761.263 458.087 809.826 416.937 863.166 382.438C882.797 369.742 901.524 355.379 921.886 343.799C936.426 335.53 948.642 324.414 962.659 315.43C964.196 314.444 974.403 305.748 968.912 308.353C959.086 313.014 949.145 317.784 939.021 321.63C920.181 328.786 902.446 338.683 883.615 345.803C866.726 352.188 851.097 362.58 833.775 367.784C817.298 372.734 801.849 379.783 785.686 385.507C777.651 388.353 769.92 391.95 761.86 394.775C756.695 396.586 758.04 393.935 760.172 390.83C766.712 381.303 775.282 373.28 785.373 367.721C788.62 365.933 793.819 362.833 796.442 360.206C799.913 356.73 788.918 361.407 787.937 361.835C732.077 386.196 677.941 413.84 624.222 442.746L623.754 442.998C609.62 450.603 595.313 458.302 580.573 464.665C570.168 469.156 559.117 471.563 548.555 475.499C541.12 478.269 533.547 481.489 526.293 484.705C521.79 486.7 518.507 490.419 514.161 492.595C504.18 497.593 515.464 486.7 517.538 484.391C531.058 469.347 545.052 454.971 559.436 440.742C574.193 426.144 590.79 413.493 605.962 399.347C612.186 393.543 618.448 387.907 624.472 381.875C626.809 379.534 631.703 376.73 633.227 373.984C634.982 370.82 629.512 373.457 628.349 374.109C621.172 378.134 613.91 382.126 606.9 386.446C601.301 389.897 595.232 392.657 589.828 396.404C588.416 397.382 586.603 398.995 584.7 398.783C582.978 398.592 586.842 396.052 588.014 394.775C591.29 391.209 594.556 387.574 597.957 384.129C651.032 330.374 711.057 285.552 769.177 237.587C788.491 221.648 808.152 205.032 828.772 190.806C838.788 183.897 847.784 175.864 858.351 169.702Z" fill="black"/>
<path d="M1107.62 140.531C1112.02 137.294 1116.22 132.794 1121.79 132.473C1120.18 134.49 1118.81 136.931 1117.69 138.374C1114.43 142.564 1079.92 177.095 1077.04 181.258C1073.06 187.018 1069.82 194.352 1066.6 200.622C1064.83 204.068 1060.17 209.954 1066.08 208.639C1077.26 206.153 1088.31 201.699 1099.38 198.559C1123.45 191.727 1146.11 182.282 1169.16 172.585C1188.71 164.359 1209.55 158.363 1228.17 148.11C1229.43 147.418 1240.76 140.967 1236.78 144.547C1228.85 151.698 1219.41 157.6 1211.07 164.333C1203.71 170.281 1193.41 174.92 1187.52 182.43C1184.74 185.968 1194.42 179.135 1195.9 178.258C1206.76 171.817 1218.99 167.106 1230.46 161.848C1246.15 154.659 1262.12 147.837 1277.25 139.483C1292.79 130.9 1309.48 124.945 1325.3 117.025C1332.23 113.557 1338.6 108.901 1345.34 105.069C1349.16 102.898 1352.73 99.6356 1356.86 98.1303C1360.51 96.8013 1356.5 98.867 1355.18 100.193C1351.37 104.006 1346.54 107.339 1342.34 110.789C1335.22 116.657 1327.77 123.397 1319.96 128.325C1312.96 132.744 1307.78 137.739 1301.88 143.516C1292.58 152.623 1281.61 160.58 1271.53 168.834C1232.19 201.063 1190.29 229.825 1150.15 261.011C1134.12 273.455 1118.29 286.182 1102.19 298.519C1086.11 310.841 1068.65 321.725 1053.39 335.09C1050.51 337.616 1047.47 340.364 1044.77 343.06C1043.43 344.406 1047.76 340.698 1049.27 339.544C1054.75 335.364 1061.06 332.013 1067.02 328.479C1071.52 325.807 1076.32 323.406 1080.89 320.67C1084.91 317.159 1088.95 313.396 1093.29 310.334C1095.91 308.49 1092.52 311.762 1091.84 312.444C1088.59 315.696 1084.83 318.308 1080.89 320.67C1080.59 320.93 1080.29 321.189 1079.99 321.446C1055.89 342.221 1032.11 363.797 1009.6 386.336C1000.19 395.762 991.534 406.438 981.362 415.029C973.012 422.083 964.616 430.146 957.291 438.238C944.292 452.597 929.02 465.021 914.767 478.09C908.71 483.644 902.692 489.547 897.58 496.001C895.769 498.286 892.059 505.932 892.381 503.033C892.694 500.212 897.756 495.032 899.266 492.625C903.528 485.828 909.173 479.946 913.924 473.496C925.996 457.106 939.047 441.549 953.357 427.079C977.188 402.982 1003.91 381.124 1024.31 353.891C1026.47 351.004 1022.28 354.27 1021.45 354.875C1017.41 357.825 1013.56 360.954 1009.6 364.018C1005.38 367.293 1001.15 370.892 997.123 374.695C993.574 378.483 990.012 382.256 986.375 385.947C986.265 386.077 986.155 386.206 986.046 386.336C984.543 388.114 982.905 389.935 980.988 391.305C980.633 391.559 984.045 388.292 984.734 387.601C985.283 387.052 985.83 386.501 986.375 385.947C989.67 382.082 993.308 378.297 997.123 374.695C1003.11 368.307 1009.06 361.876 1015.27 355.719C1030.6 340.523 1047.9 326.936 1064.63 313.335C1082.64 298.696 1099.03 282.572 1116.05 266.918C1129.19 254.838 1141.78 242.468 1155.86 231.473C1167.02 222.756 1178.71 214.58 1190.23 206.342C1191.81 205.215 1202.76 198.559 1196.32 198.559C1192.7 198.559 1189 198.183 1185.55 199.403C1177.35 202.3 1168.8 203.476 1160.73 206.811C1156.4 208.601 1151.26 209.726 1146.67 210.731L1146.59 210.749C1136.24 213.016 1125.75 213.533 1115.4 215.813C1098.31 219.577 1081.37 222.56 1064.44 227.253C1056.01 229.59 1047.63 232.013 1039.15 234.192C1032.81 235.823 1026.32 239.412 1019.76 239.865C1017.69 240.008 1015.48 240.035 1013.4 239.912C1011.18 239.781 1015.15 236.925 1015.5 236.489C1019.61 231.431 1024.73 226.875 1029.37 222.236C1033.53 218.062 1039.98 214.283 1045.01 211.218C1046.51 210.3 1051.24 208.122 1051.24 205.779C1051.24 203.818 1046.07 206.805 1045.76 206.998C1041.01 209.892 1036.06 212.738 1031.1 215.25C1019.14 221.304 1008.47 229.636 996.536 235.692C993.35 237.309 990.124 238.862 986.888 240.334C986.255 240.623 983.7 241.613 985.577 240.568C990.238 237.976 994.982 234.196 999.065 230.816C1014.12 218.351 1031 206.625 1044.77 192.839C1049.49 188.119 1054.87 183.869 1060.14 179.701L1060.6 179.336C1064.8 176.021 1103.32 143.699 1107.62 140.531Z" fill="black"/>
<path d="M961.854 482.509C969.815 475.078 977.528 467.36 985.624 460.088C1002.96 444.519 1019.75 428.07 1036.58 411.937C1044.62 404.224 1052.77 396.614 1060.65 388.729C1063.62 385.752 1063.59 385.251 1061.49 389.573C1059.87 392.925 1056.43 397.975 1056.43 401.81C1056.43 402.918 1067.62 391.913 1069.08 390.37C1079.21 379.658 1090.46 370.572 1100.93 360.222C1110.18 351.076 1120.55 342.307 1130.62 334.06C1137.18 328.687 1143.67 323.524 1150.01 317.885C1154.58 313.818 1156.41 315.98 1153.8 321.213C1151.63 325.561 1149.14 329.689 1146.82 333.873C1143.96 339.025 1147.87 335.817 1150.01 334.716C1154.66 332.315 1159.34 330.1 1163.77 327.262C1167.69 324.753 1164.48 328.572 1163.68 329.84C1160.31 335.185 1156.89 340.51 1153.33 345.735C1147.26 354.646 1142.46 364.4 1136.7 373.538C1129.26 385.371 1121.67 397.033 1114.41 408.983C1107.88 419.741 1101.41 430.154 1093.15 439.74C1090.23 443.132 1087.49 446.708 1084.63 450.149C1084.24 450.613 1080.14 454.164 1081.35 454.509C1082.95 454.968 1089.26 452.35 1090.34 451.368C1097.56 444.8 1106.32 439.692 1113.76 433.27C1126.3 422.429 1140.45 412.584 1154.59 403.966C1175.45 391.26 1195.81 377.772 1216.69 365.098L1217.23 364.773C1231.75 355.96 1246.45 347.046 1259.87 336.592C1268.17 330.133 1276.36 323.342 1284.88 317.181C1286.92 315.707 1296.54 310.394 1290.74 316.572C1283.64 324.116 1275.21 331.703 1269.75 340.577C1268.44 342.721 1267.29 345.273 1265.45 347C1264.37 348.007 1263.46 349.096 1262.59 350.282C1262.04 351.034 1259.88 352.439 1260.81 352.439C1263.85 352.439 1268.32 348.586 1270.6 346.907C1275.28 343.464 1280.27 340.32 1284.79 336.686C1291.23 331.501 1298.18 326.095 1305.11 321.635C1309.03 319.115 1311.99 314.989 1316.17 312.258C1317.99 311.064 1329.06 300.27 1331.9 302.834C1334.19 304.901 1322.48 316.384 1321.22 317.369C1293.37 339.279 1263.9 359.25 1237.11 382.493C1225.41 392.647 1212.74 401.71 1200.77 411.515C1193.48 417.487 1185.14 423.31 1178.95 430.457C1178.8 430.628 1178.64 430.81 1178.47 431.001C1183.57 427.166 1188.84 423.604 1194.17 420.048C1200.1 416.091 1197.58 417.444 1194.68 420.986C1191.78 424.534 1188.87 427.96 1185.78 431.348C1183.29 434.082 1180.27 435.408 1177.64 437.865C1174.22 441.049 1170.43 443.878 1166.91 446.96C1160.13 452.898 1154.57 460.562 1147.9 466.746C1125.43 487.574 1106.6 512.311 1083.69 532.761C1069.02 545.85 1056.44 561.584 1041.21 573.973C1040.32 574.696 1037.11 578.111 1038.54 575.239C1040.91 570.496 1044.31 566.13 1047.21 561.689C1050.71 556.323 1054.24 550.965 1058.03 545.795C1059.71 543.492 1062.16 539.468 1057.28 540.825C1053.44 541.891 1049.16 547.128 1046.04 549.452C1040.6 553.498 1035.4 557.637 1029.83 561.549C1028.79 562.282 1017.95 571.571 1022.48 567.034C1034.18 555.325 1046.54 541.662 1054.23 526.853C1054.6 526.143 1057.07 518.52 1053.91 520.196C1050.91 521.782 1048.25 526.69 1046.32 529.291C1041.79 535.38 1036.41 540.369 1031.52 546.17C1030.41 547.493 1017.06 561.251 1016.86 560.376C1015.74 555.31 1018.74 549.57 1020.56 545.139C1026.78 530.042 1032.97 515.09 1039.53 500.128C1045.54 486.396 1051.97 472.759 1057.61 458.869C1062.23 447.465 1066.54 435.933 1072.83 425.299C1076.21 419.58 1078.94 413.456 1082.52 407.858C1083.62 406.143 1086.62 403.716 1083.41 405.607C1078.69 408.388 1074.24 413.318 1069.92 416.766C1059.39 425.188 1050.21 435.252 1039.95 444.007C1017.17 463.435 995.514 484.104 973.026 503.879C959.202 516.036 945.703 528.29 931.299 539.794C929.201 541.469 910.468 558.392 907.414 555.641C904.899 553.375 922.732 535.003 923.899 533.652C926.427 530.725 930.314 527.76 931.486 523.946C932.362 521.097 920.188 530.793 919.263 531.589C917.019 533.52 911.839 538.933 915.704 533.37C918.638 529.147 922.04 525.3 924.93 521.039C934.71 506.619 946.925 491.76 961.854 482.509Z" fill="black"/>
<path d="M1564.77 154.004C1569.95 150.153 1574.72 144.506 1581.47 145.128C1579.53 146.645 1577.6 148.174 1575.73 149.785C1574.95 150.458 1568.05 154.216 1568.05 155.13C1568.05 156.879 1577.01 152.895 1577.37 152.785C1584.24 150.667 1591.12 145.493 1597.18 141.814C1601.82 138.994 1605.38 135.179 1609.78 132.156C1610.86 131.411 1613.07 129.249 1614.41 129.249C1615.6 129.249 1607.38 140.922 1606.64 141.814C1596.64 153.781 1584.6 164.741 1573.06 175.197C1553.91 192.539 1533.38 207.55 1516.25 227.052C1511.19 232.818 1505.6 237.894 1499.77 242.831C1512.1 235.746 1526.08 229.152 1539.34 224.942C1540.87 224.456 1548.06 220.128 1549.41 222.832C1550.51 225.033 1540.49 231.503 1539.48 232.303C1478.39 280.741 1416.01 327.62 1355.24 376.429C1325.44 400.367 1295.98 424.462 1268.46 451.024C1251.75 467.154 1234.22 482.94 1216.34 497.769C1211.22 502.017 1205.97 506.159 1201.02 510.615C1200.61 510.989 1196.79 514.351 1197.28 513.475C1199.76 508.998 1205.43 501.245 1210.5 494.831C1205.16 499.728 1201.3 503.078 1195.36 508.177C1188.12 514.394 1180.76 520.465 1173.53 526.697C1164.16 534.78 1155.16 543.063 1146.37 551.781C1139.98 558.12 1120.11 576.386 1126.47 570.019C1132.73 563.75 1138.29 556.471 1143.66 549.437C1153.99 535.892 1166.71 523.069 1178.73 511.037C1214.31 475.424 1249.62 440.223 1285.84 405.873C1309.18 383.734 1331.32 360.392 1354.82 338.405C1379.58 315.241 1405.07 293.236 1430.92 271.312C1448.84 256.122 1466.47 240.21 1483.66 224.192C1486.08 221.935 1494.46 215.812 1487.22 219.644C1476.71 225.201 1467.1 233.054 1456.07 237.554C1444.41 242.312 1459.38 231.713 1462.02 229.865C1483.16 215.083 1503.02 198.647 1523.56 183.073C1536.98 172.9 1551.27 164.046 1564.77 154.004Z" fill="black"/>
<path d="M1295.25 241.733C1297.98 241.808 1300.43 242.31 1303.57 242.024C1311.3 241.321 1319.72 238.686 1327.18 236.585C1334.17 234.617 1341.42 234.342 1348.44 233.098C1349.74 232.638 1351.04 232.239 1352.37 231.943C1357.19 230.873 1356.23 231.358 1352 232.365C1350.82 232.646 1349.63 232.886 1348.44 233.098C1343.36 234.899 1338.46 237.626 1333.13 238.695C1330.77 239.167 1328.45 240.117 1326.05 240.383C1323.45 240.673 1331.3 240.482 1333.92 240.336C1367.24 238.483 1400.27 235.035 1433.35 230.678C1450.26 228.449 1466.88 227.61 1483.64 223.926C1491.92 222.108 1500.66 222.492 1508.89 220.503C1516.02 218.778 1523.07 218.21 1530.34 217.55C1541.96 216.492 1553.68 212.533 1565.32 212.533C1572.02 212.533 1552.54 216.644 1545.98 218.018C1537.26 219.845 1528.43 220.889 1519.8 223.129C1516.52 223.981 1513.35 225.292 1510.15 226.411C1509.36 226.687 1504.79 226.88 1507.58 226.88C1510.06 226.88 1512.51 227.724 1515.16 227.724C1529.05 227.724 1544.27 224.426 1558.15 222.66C1573.8 220.671 1589.77 220.897 1605.36 218.44C1617.04 216.6 1629.58 214.478 1641.42 214.221C1643.97 214.165 1649.56 213.425 1649.2 213.564C1641.63 216.51 1631.18 215.91 1623.06 216.94C1593.11 220.742 1562.92 225.61 1532.87 230.068C1527.29 230.895 1521.51 230.905 1516.01 232.131C1510.28 233.405 1504.01 233.552 1498.49 235.132C1495.48 235.994 1492.29 235.03 1489.22 235.976C1486.12 236.929 1482.17 237.67 1478.91 237.851C1474.38 238.103 1469.03 239.281 1464.63 240.383C1463.43 240.683 1461.56 241.006 1459.56 241.318C1457 242.603 1454.19 242.915 1451.19 242.915C1447.87 242.915 1454.18 242.157 1459.56 241.318C1460.27 240.961 1460.96 240.529 1461.63 240.008C1463.28 238.726 1466.18 239.115 1468.14 237.851C1469.86 236.748 1471.69 236.027 1473.39 234.944C1473.9 234.62 1474.48 234.491 1474.76 234.448C1474.57 234.461 1474.23 234.475 1473.67 234.475C1471.47 234.475 1469.25 234.303 1467.11 234.897C1464.36 235.664 1456.36 234.217 1454.47 236.585C1452.97 238.459 1443.09 239.539 1440.56 239.539C1437.75 239.539 1437.06 241.995 1435.45 242.915C1432.01 244.884 1427.83 245.349 1424.07 246.29C1417.1 248.035 1411.26 250.972 1404.26 252.245C1400.52 252.926 1397.15 253.886 1393.31 253.886C1389.44 253.886 1385.88 256.418 1381.93 256.418C1377.67 256.418 1375.68 258.849 1371.86 260.215C1367.08 261.924 1361.26 261.498 1356.26 262.794C1345.53 265.58 1334.15 268.038 1323.15 269.733C1317.57 270.592 1313.27 269.921 1307.79 269.921C1299.66 269.921 1291 272.169 1282.97 273.484C1280.18 273.941 1272.91 276.091 1279.32 273.953C1288.38 270.926 1297.61 268.404 1306.76 265.701C1309.12 265.003 1319.12 263.227 1320.25 260.637C1320.95 259.024 1313.81 260.535 1313.22 260.637C1308.12 261.525 1303.12 261.481 1297.95 261.481H1265.64C1261.17 261.481 1259.32 259.079 1255.06 258.949C1248.48 258.75 1261.03 255.644 1262.74 255.105C1270.73 252.585 1278.59 253.83 1286.72 252.854C1290.32 252.421 1294.7 251.612 1298.05 250.088C1300.19 249.116 1297.29 250.125 1296.64 250.323C1292.22 251.686 1284.42 250.956 1280.07 250.323C1276.58 249.816 1272.18 250.68 1269.67 248.166C1269.36 247.861 1271.3 247.88 1272.01 247.556C1274.64 246.359 1277.62 245.739 1280.44 245.259C1285.1 244.467 1291.12 244.336 1295.25 241.733Z" fill="black"/>
<path d="M1769.31 77.8627C1770.87 76.8943 1772.33 75.9625 1773.78 75.1232C1771.08 77.2439 1768.49 79.5727 1766.04 82.2231C1762.65 85.8841 1758.87 89.9526 1754.8 92.8661C1750.6 95.8684 1772.21 82.1339 1768.56 85.7864C1759.49 94.8755 1748.75 102.496 1738.69 110.448C1728.99 118.111 1720.19 126.694 1710.82 134.735C1687.18 155.018 1664.57 177.067 1643.34 199.812C1640.57 202.778 1632.47 208.668 1631.3 212.752C1630.98 213.874 1637.71 210.678 1638.09 210.502C1651.44 204.351 1663.95 196.478 1677.43 190.482C1678.7 189.916 1685.95 186.828 1685.95 190.013C1685.95 193.11 1683.57 196.138 1682.11 198.687C1674.59 211.863 1663.16 222.476 1652.89 233.476C1638.95 248.403 1624.39 263.459 1608.96 276.845C1604.59 280.635 1615.67 274.049 1616.83 273.985C1620.26 273.794 1624.22 269.682 1627.79 268.546C1633.15 266.837 1642.24 267.902 1647.55 269.39C1661.18 273.21 1647.72 293.302 1661.88 295.88C1669.04 297.183 1675.99 295.083 1683.24 295.083C1688.16 295.083 1688.86 296.972 1691.85 300.147C1695.51 304.019 1688.87 311.474 1686.7 314.119C1675.97 327.209 1663.26 338.665 1652.89 352.002C1638.71 370.232 1621.76 387.235 1605.87 403.951C1588.76 421.952 1571.62 439.925 1554.07 457.495C1542.6 468.981 1530.81 480.448 1518.39 490.877C1516.26 492.666 1507.25 501.914 1510.24 493.362C1510.86 491.593 1513.06 488.346 1512.25 486.329C1512.05 485.832 1509.72 488.4 1509.58 488.533C1505.16 492.731 1500.36 496.572 1495.61 500.381L1495.53 500.442C1492.38 502.966 1489.05 505.047 1485.75 507.334C1484.87 507.943 1480.75 509.51 1482.98 507.099C1494.17 495.003 1505.09 482.516 1516.56 470.623C1538.86 447.499 1561.81 424.856 1583.77 401.42C1597.8 386.442 1610.91 370.922 1624.42 355.519C1629.78 349.402 1637.95 343.847 1641.65 336.436C1646.31 327.111 1632.4 326.309 1627.13 326.309C1617.31 326.309 1606.84 330.726 1597.49 333.436C1586.05 336.749 1574.15 339.482 1562.5 341.922C1555.24 343.445 1548.46 345.485 1541.43 347.829C1538.18 348.914 1535.23 350.98 1531.69 350.783C1529.31 350.651 1538.51 338.866 1539.23 337.749C1540.38 335.95 1548.13 326.142 1546.21 324.434C1544.56 322.967 1534.19 328.865 1532.72 329.685C1515.46 339.282 1499.81 352.883 1481.76 360.91C1473.27 364.69 1464.99 369.22 1456.85 374.073C1457.03 375.436 1453.64 379.124 1453.2 379.571C1436.06 396.725 1419.26 414.196 1402.06 431.145C1379.4 453.472 1358.98 478.116 1336.49 500.629C1318.62 518.526 1300.48 536.384 1284.6 556.142C1281.39 560.139 1277.59 566.565 1272.89 569.176C1272.03 569.655 1274.32 565.152 1274.58 564.769C1280.17 556.373 1285.39 548.421 1291.91 540.529C1305.64 523.902 1318.12 506.318 1332.09 489.846C1346.02 473.414 1361.68 458.799 1376.11 442.819C1377.95 440.78 1403.09 415.036 1401.68 413.422C1399.85 411.329 1383.82 422.026 1382.48 422.706C1376.99 425.486 1371.48 428.562 1365.81 430.957C1364.65 431.447 1361.54 433.965 1360.24 433.442C1359.98 433.338 1367.42 426.156 1367.82 425.8C1375.65 418.914 1383.18 411.617 1390.91 404.608C1413.67 383.976 1440.02 367.38 1464.62 349.095C1489.04 330.949 1512 310.525 1537.49 293.864C1551.7 284.578 1565.43 274.159 1578.24 263.014C1581.15 260.481 1583.61 256.814 1586.67 254.574C1586.8 254.477 1590.67 251.292 1588.5 251.292C1586.36 251.292 1581.32 255.167 1579.36 256.262C1577.24 257.452 1574.96 258.312 1572.62 258.981C1568.23 260.238 1561.65 263.2 1557.5 266.178C1557.17 266.434 1556.84 266.682 1556.51 266.922C1556.38 267.026 1556.26 267.13 1556.13 267.233C1555.09 268.111 1551.82 270.001 1555.1 267.89C1555.58 267.585 1556.05 267.262 1556.51 266.922C1556.82 266.674 1557.15 266.426 1557.5 266.178C1562.2 262.498 1566.53 257.314 1570.51 253.261C1594.96 228.345 1621.25 205.03 1646.71 181.151C1663.68 165.235 1680.61 149.571 1698.6 134.782C1712.71 123.179 1726.32 110.883 1740.56 99.4769C1749.8 92.0741 1759.24 84.1139 1769.31 77.8627Z" fill="black"/>
<path d="M1849.72 161.887C1862.07 154.908 1874.48 147.316 1887.79 142.293C1866.61 156.111 1844.39 169.366 1821.75 180.314C1810.45 185.774 1799.53 192.267 1788.81 198.753C1778.71 204.871 1767.81 209.16 1758.03 216.005C1750.96 220.955 1728.65 233.802 1736.7 230.683C1739.13 229.742 1741.92 229.022 1744.73 228.24C1753.24 225.875 1761.7 223.609 1770.13 220.737C1785.1 215.639 1800.98 215.044 1816.51 212.747C1828.27 211.007 1840.44 207.415 1852.14 211.25C1858.43 213.312 1851.04 219.581 1848.29 222.07C1847.36 222.906 1837.8 230.278 1843.39 229.901C1852.41 229.292 1860.41 226.913 1868.64 223.183C1869.3 222.883 1882.27 217.909 1879.3 221.876C1877.38 224.452 1875.37 226.118 1873.26 228.654C1869.87 232.741 1866.69 236.741 1863.55 240.948C1860.9 244.491 1862.52 242.741 1865.51 241.32C1871.44 238.494 1877.99 236.622 1884.21 234.595C1889.38 232.909 1889.09 233.638 1886.4 236.874C1880.27 244.242 1872.64 249.878 1864.76 255.491C1824.9 283.897 1788.49 317.031 1751.39 348.835C1707.28 386.656 1663.98 425.025 1621.59 464.729C1608.83 476.686 1596.86 490.383 1583.47 501.604C1575.85 507.982 1568.34 514.552 1560.75 520.982C1555.58 525.355 1550.99 530.468 1545.01 533.661C1540.8 535.907 1543.33 531.986 1544.77 530.432C1549.35 525.481 1553.43 520.104 1558.17 515.047C1583.1 488.462 1606.45 460.252 1631.77 433.937C1669.92 394.288 1705.62 351.704 1748.05 316.471C1764.51 302.805 1780.68 288.845 1796.99 275.026C1805.29 267.987 1812.7 260.038 1820.83 252.9C1824.19 249.956 1807.28 253.039 1806.43 253.116C1794.76 254.184 1785.1 259.08 1773.77 261.834C1772.3 262.191 1764.47 262.283 1769.01 261.499C1774.98 260.466 1781.07 256.87 1786.52 254.387C1791.81 251.977 1796.77 248.942 1802.1 246.571C1803.51 245.94 1806.54 245.111 1807.57 243.866C1807.9 243.469 1802.54 242.563 1801.74 242.637C1784.6 244.205 1768.56 250.631 1751.59 252.184C1741.96 253.065 1732.5 254.801 1722.92 255.799C1715.22 256.601 1707.86 259.161 1700.18 259.863C1695.19 260.32 1687.76 261.64 1682.98 259.454C1682.01 259.012 1691.42 253.237 1692.7 252.615C1699.25 249.432 1706.45 245.101 1712.37 240.843C1713.86 239.773 1727.77 231.14 1727.81 229.788C1727.84 228.9 1704.58 240.486 1704.18 236.193C1704.08 235.07 1717.58 227.323 1718.83 226.644C1726.04 222.737 1732.66 217.52 1740.14 214.116C1760.31 204.932 1779.38 193.512 1799.62 184.542C1807.86 180.892 1815.96 176.138 1823.82 171.695C1826.52 170.169 1830.04 167.385 1825.69 171.029C1824.7 171.856 1817.99 177.308 1819.12 177.524C1822.29 178.123 1825.61 174.273 1828.05 172.796C1834.98 168.599 1842.69 165.863 1849.72 161.887Z" fill="black"/>
<path d="M1988.49 143.617C2014.71 122.872 2048.76 92.2349 2077.06 75.4425C2065.52 94.3997 2053.02 112.639 2041.52 131.436C2037.56 137.896 2032.02 144.915 2029.12 152.025C2026.44 158.623 2042.92 152.295 2045.01 151.756C2054.4 149.335 2063.52 145.282 2072.62 141.799C2090.87 134.821 2044.68 172.14 2028.74 184.466C1979.3 222.705 1931.25 265.559 1888.32 312.727C1882.54 319.07 1867.26 338.846 1874.57 335.009C1880.85 331.716 1886.25 325.889 1892.45 322.255C1894.46 321.076 1903.38 313.049 1900.06 317.404C1894.49 324.712 1889.88 332.193 1883.74 339.189C1867.92 357.234 1852.35 375.583 1836.39 393.481C1820.16 411.691 1801.9 427.405 1785.32 445.217C1769.28 462.443 1754.98 481.429 1738.52 498.237C1725.77 511.257 1715.26 527.445 1701.15 538.598C1678.52 556.49 1660.94 580.591 1640.85 601.423C1634.83 607.671 1627.06 614.13 1622.27 621.622C1619.5 625.948 1613.72 623.393 1615.63 618.16C1620.83 603.975 1630.55 591.246 1639.92 580.102C1661.23 554.76 1682.38 529.252 1703.71 503.933C1726.99 476.297 1749.83 447.748 1772.57 419.552C1802.87 381.998 1837.24 349.184 1868.56 312.825C1909.14 265.715 1946.76 215.28 1989.22 170.297C1994.13 165.098 2004.45 155.987 2003.93 147.282C2003.83 145.706 1990.06 151.667 1988.31 152.545C1987.54 152.933 1972.14 162.317 1976.97 155.412C1979.85 151.294 1984.67 146.642 1988.49 143.617Z" fill="black"/>
<path d="M1909.89 177.727C1921.62 175.753 1933.49 175.971 1945.23 175.184C1968.4 173.631 1991.55 170.246 2014.72 167.73C2026.63 166.437 2037.71 164.953 2049.48 166.186L2058.53 167.133C2054.83 166.746 2051.36 167.23 2047.65 167.393C2044.13 167.547 2043.2 168.491 2047.05 168.894C2056.28 169.86 2064.54 171.225 2074.08 170.242C2091.34 168.462 2108.64 168.071 2125.82 168.583C2133.34 168.807 2148.21 168.859 2159.67 168.668C2163.78 167.909 2168.09 166.756 2172.14 167.179C2179.96 167.998 2171.68 168.467 2159.67 168.668C2159.47 168.704 2159.28 168.74 2159.08 168.774C2148.41 170.646 2137.79 170.684 2127.14 172.836C2117.93 174.698 2108.42 173.533 2099.15 174.431C2086.68 175.639 2074.08 177.201 2061.65 179.968C2044.81 183.721 2027.62 182.202 2010.73 184.264C2008.11 184.584 2007.94 183.14 2010.4 181.678C2015.08 178.888 2019.92 177.577 2024.71 175.442C2026.34 174.719 2030.9 172.233 2026.59 172.758C2021.14 173.424 2015.59 173.566 2010.13 174.738C2004.72 175.9 1999.72 174.726 1994.4 175.559C1988.06 176.55 1981.88 179.366 1975.57 180.664C1957.22 184.442 1938.89 188.49 1920.56 191.938C1907.72 194.353 1895.03 197.393 1882.29 200.191C1881.05 200.464 1871.94 201.714 1877.08 199.975C1881.29 198.547 1885.16 193.823 1889.3 191.627C1900.31 185.788 1874.67 191.973 1880.08 185.477C1883.49 181.381 1889.08 180.961 1893.02 179.756C1901.26 177.235 1901.64 179.279 1909.89 177.727Z" fill="black"/>
<path d="M1962.45 306.984C1981.64 286.406 2001.97 267.133 2022.97 248.416C2010.84 265.123 2005.43 263.681 1991.3 278.688C1985.66 284.673 1980.3 290.7 1975.87 297.642C1974.64 299.565 1972.54 302.397 1972.46 304.828C1972.31 308.872 1981.5 300.719 1982.24 300.157C1987.54 296.12 1992.17 290.682 1997.94 287.312C2000.72 285.685 1999.85 287.588 1998.7 289.243C1996.26 292.76 1993.22 295.898 1990.67 299.349C1982.69 310.13 1975.57 321.467 1968.78 333.034C1958.62 350.319 1947.09 366.711 1938.18 384.731C1933.73 393.731 1925.26 405.669 1925.26 416.215C1925.26 426.681 1942.49 409.198 1944.46 407.502C1956.13 397.459 1967.66 386.501 1978.65 375.703C1984.8 369.653 1991.37 362.494 1999.15 358.456C2004.73 355.558 2004.46 359.463 2002.69 363.396C1999.95 369.509 1996.76 375.393 1993.9 381.452C1992.6 384.201 1997.74 380.655 1998.75 380.374C2004.6 378.745 2008.69 374.041 2013.42 370.403C2026.93 359.993 2039.59 347.388 2051.64 335.325C2066.99 319.959 2082.53 304.915 2098.66 290.366C2115.14 275.492 2131.21 260.148 2147.69 245.272C2148.98 244.108 2162.66 229.812 2164.92 231.619C2167.09 233.356 2149.86 257.382 2148.32 259.555C2147.35 260.917 2142.67 266.714 2143.47 266.202C2148.69 262.863 2153.58 259.228 2158.68 255.693C2161.96 253.422 2170.47 245.813 2175.1 246.844C2176.18 247.083 2170.42 255.375 2169.9 256.187C2154.86 279.521 2135.99 299.911 2119.52 322.165C2101.55 346.438 2084.86 371.789 2066.18 395.51C2058.75 404.94 2050.65 416.633 2040.92 423.851C2036.56 427.081 2032.17 429.71 2027.37 432.115C2022.06 434.774 2025.94 426.04 2026.61 423.896C2028.89 416.568 2021.36 418.505 2016.87 419.404C2004.74 421.833 1993.03 425.629 1981.79 430.947C1962.91 439.878 1943.4 448.115 1923.82 455.38C1915.46 458.485 1906.89 460.958 1898.61 464.273C1896.03 465.306 1875.19 475.506 1875.19 466.294C1875.19 463.893 1877.76 460.749 1878.83 458.614C1880.57 455.119 1882.52 451.881 1884.08 448.284C1887.62 440.069 1892.49 432.494 1897.4 425.018C1905.19 413.153 1914.53 401.978 1921.27 389.491C1924.69 383.148 1929.26 377.238 1933.34 371.301C1933.64 370.859 1939.5 362.844 1938.81 362.768C1935.8 362.433 1930.95 366.145 1928.76 367.618C1924.67 370.365 1917.8 377.565 1912.52 377.769C1910.08 377.863 1920.57 365.492 1921.31 364.744C1927.87 358.182 1933.57 350.775 1939.75 343.859C1942.37 340.934 1945.92 334.903 1949.8 333.349C1950.99 332.874 1947.36 334.098 1946.17 334.562C1941.44 336.401 1936.79 340.212 1932.53 343.005C1931.01 343.999 1923.37 350.451 1921.4 348.485C1921.16 348.247 1931.06 339.124 1931.72 338.514C1942.44 328.583 1952.49 317.675 1962.45 306.984Z" fill="black"/>
<path fill-rule="evenodd" clip-rule="evenodd" d="M2224.44 252.387C2204.64 275.405 2185.49 299.107 2167.75 323.517C2159.72 334.56 2150.95 345.074 2142.19 355.583C2133.07 366.526 2123.95 377.464 2115.67 388.988L2115.61 389.079C2114.84 390.149 2108.96 398.303 2109.67 398.508C2112.84 399.413 2116.29 396.292 2118.94 393.892C2119.69 393.217 2120.37 392.6 2120.96 392.144C2127.85 386.876 2134.66 381.457 2141.1 375.649C2141.94 374.897 2142.77 374.117 2143.61 373.332C2147.15 370.018 2150.81 366.602 2155.19 364.653C2156.47 364.081 2155.66 365.817 2155.1 367.023C2155.03 367.159 2154.97 367.288 2154.92 367.407C2154.89 367.477 2154.86 367.544 2154.83 367.605C2152.69 372.57 2149.07 377.433 2145.69 381.99C2144.7 383.315 2143.73 384.614 2142.83 385.882C2138.72 391.645 2134.67 397.442 2130.62 403.238C2125.68 410.321 2120.74 417.402 2115.67 424.421C2112.37 429.008 2108.99 433.548 2105.61 438.089L2105.61 438.09L2105.61 438.091C2099.07 446.877 2092.52 455.666 2086.49 464.806C2081.34 468.755 2075.42 474.117 2069.58 479.402C2064.41 484.085 2059.3 488.708 2054.86 492.234C2053.47 493.332 2052.09 494.426 2050.71 495.519L2050.7 495.526L2050.7 495.527C2044.93 500.088 2039.18 504.631 2033.55 509.391C2032.64 510.156 2031.64 511.068 2030.56 512.049L2030.56 512.05L2030.56 512.05C2026.03 516.158 2020.18 521.462 2014.94 522.118C2012.73 522.395 2017.37 515.114 2018.46 513.406C2018.55 513.267 2018.61 513.165 2018.65 513.107C2019.46 511.803 2020.28 510.503 2021.1 509.201C2024.06 504.525 2027.03 499.828 2029.38 494.83C2035.59 481.626 2017.49 493.193 2013.67 496.307C2012.55 497.217 2011.44 498.127 2010.34 499.031C2004.87 503.538 1999.55 507.915 1993.38 511.682C1992.74 512.068 1992.03 512.577 1991.26 513.123C1988.92 514.776 1986.1 516.773 1983.66 516.773C1980.83 516.773 1983.9 498.499 1985.32 490.022C1985.65 488.017 1985.9 486.56 1985.95 486.023L1986.03 485.239C1986.73 478.105 1987.61 469.193 1985.29 462.4C1982.47 454.127 1970.2 457.314 1964.24 459.448C1946.14 465.927 1929.07 479.675 1914.5 491.776C1887.81 513.952 1862.16 537.295 1837.82 562.032C1835.71 564.176 1833.59 566.319 1831.46 568.466L1831.46 568.469C1809.15 591.021 1786.46 613.951 1771.81 642.266C1771.76 642.373 1771.64 642.585 1771.48 642.888C1769.4 646.712 1759.51 664.927 1764.9 665.227C1768.12 665.406 1770.4 664.524 1773.28 663.41C1773.46 663.338 1773.65 663.265 1773.85 663.191C1774.1 663.092 1775.27 662.321 1776.37 661.591L1776.37 661.591L1776.38 661.588C1777.48 660.856 1778.53 660.166 1778.53 660.238C1778.53 660.619 1776.66 663.18 1776.29 663.394C1775.06 664.099 1772.14 671.151 1774.56 671.591C1778.52 672.312 1783.66 669.805 1787.51 667.924C1788.15 667.613 1788.75 667.319 1789.31 667.06C1797.1 663.424 1785.25 677.088 1774.97 688.947C1766.35 698.887 1758.83 707.559 1764.9 703.715C1766.85 702.477 1768.84 701.162 1770.87 699.825L1770.87 699.824C1777.9 695.187 1785.32 690.287 1792.86 687.424C1800.23 684.627 1790.87 697.312 1789.66 698.777C1782.11 707.93 1787.59 705.065 1794.8 701.3C1803.6 696.701 1814.97 690.76 1808.32 703.715C1802.83 714.426 1812.61 712.222 1819.11 707.89C1820.98 706.637 1822.85 705.373 1824.73 704.108L1824.73 704.108L1824.73 704.106C1830.17 700.43 1835.62 696.749 1841.23 693.329C1842.65 692.458 1850.64 688.333 1848.55 693.228C1846.58 697.83 1843.24 701.831 1839.89 705.842C1835.64 710.929 1831.38 716.032 1829.89 722.399C1828.24 729.396 1841.41 727.986 1846.68 727.422C1846.83 727.406 1846.97 727.391 1847.11 727.376C1847.24 727.363 1847.36 727.35 1847.48 727.338C1855.15 726.554 1862.61 723.45 1869.85 720.437C1871.97 719.552 1874.08 718.676 1876.16 717.868C1884.71 714.56 1893.12 710.424 1901.41 706.344L1901.41 706.343C1903.21 705.461 1904.99 704.583 1906.77 703.715C1910.63 701.838 1914.54 700.193 1918.42 698.557L1918.42 698.556C1926.1 695.321 1933.7 692.119 1940.69 687.22C1948.76 681.565 1955.7 674.497 1962.64 667.423C1965.62 664.388 1968.6 661.352 1971.67 658.427C1954.39 682.314 1937.6 706.555 1921.42 731.003C1920.18 732.871 1918.81 734.754 1917.42 736.663L1917.42 736.664L1917.42 736.665C1914.4 740.806 1911.3 745.064 1909.32 749.534C1908.27 751.901 1911.32 750.454 1912.32 749.891C1915.51 748.094 1918.09 744.367 1920.42 740.997L1920.42 740.997C1921.25 739.791 1922.05 738.631 1922.84 737.621C1922.96 737.464 1923.12 737.257 1923.31 737.011C1924.97 734.815 1928.96 729.549 1931.28 729.781C1932.35 729.888 1929.92 736.518 1929.29 738.261V738.261C1929.22 738.449 1929.17 738.58 1929.15 738.639C1928.99 739.098 1928.67 739.893 1928.26 740.911C1925.67 747.299 1919.52 762.484 1928.03 758.698C1932.86 756.55 1937.4 751.571 1941.43 747.155L1941.43 747.154C1942.77 745.689 1944.05 744.286 1945.27 743.069C1948.67 739.665 1951.93 736.16 1955.19 732.659C1960.19 727.29 1965.18 721.929 1970.64 716.952C1971.25 716.404 1981.58 707.438 1981.78 707.941C1982.35 709.363 1980.71 712.786 1980 713.999C1978.57 716.438 1977.47 719.106 1976.36 721.773C1975.46 723.941 1974.56 726.108 1973.49 728.152C1971.41 732.125 1969.18 736.025 1966.94 739.925C1964.33 744.483 1961.72 749.04 1959.35 753.709C1957.83 756.725 1956.02 761.562 1959.91 756.305C1966.37 747.574 1972.06 738.33 1977.74 729.086L1977.74 729.085L1977.74 729.083C1979.64 726 1981.53 722.917 1983.46 719.854C2015.83 668.309 2048.65 617.109 2081.55 565.901C2090.87 551.402 2100.61 537.2 2110.36 522.996L2110.36 522.995L2110.36 522.994L2110.37 522.989C2117.31 512.876 2124.25 502.761 2131.03 492.539C2133.51 488.812 2136.13 485.06 2138.77 481.272C2146.21 470.622 2153.85 459.679 2159.05 448.146C2159.64 446.839 2159.45 446.322 2158.29 447.127C2155.23 449.249 2152.8 452.526 2150.48 455.663L2150.48 455.664C2149.6 456.85 2148.74 458.015 2147.86 459.091C2144.42 463.317 2140.76 467.383 2137.11 471.448L2137.1 471.45C2134.58 474.254 2132.06 477.058 2129.61 479.914C2129.37 480.189 2128.86 480.824 2128.27 481.552L2128.27 481.554C2126.46 483.803 2123.92 486.947 2126.51 483.223C2127.42 481.905 2128.34 480.588 2129.26 479.27C2132.99 473.942 2136.72 468.601 2140.19 463.113C2145.06 455.391 2149.6 447.439 2153.71 439.287C2154.14 438.439 2154.68 437.493 2155.25 436.486C2157.1 433.239 2159.31 429.366 2159.31 426.152C2159.31 422.361 2151.34 426.665 2150.46 427.17C2143.7 431.059 2137.5 436.373 2131.41 441.585L2131.41 441.585L2131.41 441.586C2128.85 443.778 2126.31 445.951 2123.76 447.993C2120.8 450.367 2117.95 452.938 2115.1 455.512C2110.65 459.541 2106.18 463.577 2101.23 466.881C2095.11 470.966 2101.58 462.61 2102.71 461.179C2127.37 429.95 2152.28 398.852 2177.51 368.013C2177.62 367.884 2178 367.467 2178.59 366.819L2178.59 366.817C2183.71 361.196 2204.65 338.225 2199.28 335.532C2196.37 334.077 2190.92 336.953 2188.2 338.389C2188.04 338.478 2187.88 338.561 2187.73 338.638C2181.27 342.02 2174.85 345.574 2168.45 349.123L2168.44 349.124C2165.21 350.915 2161.98 352.705 2158.75 354.471C2157.79 354.995 2156.49 355.918 2155.04 356.954L2155.04 356.954C2151.55 359.447 2147.15 362.594 2144.25 362.413C2143.36 362.357 2144.5 361.162 2145.4 360.208C2145.67 359.925 2145.92 359.664 2146.08 359.46C2148.74 356.253 2151.19 352.892 2153.65 349.533L2153.65 349.532C2154.73 348.051 2155.82 346.57 2156.92 345.103C2168.64 329.455 2180.06 313.557 2191.49 297.657L2191.49 297.654C2202.39 282.496 2213.28 267.336 2224.44 252.387ZM1950.35 525.637C1947.75 521.953 1942.04 523.457 1935.85 525.637C1931.72 527.094 1929.45 527.486 1927.19 529.265C1926.51 529.797 1921.77 531.966 1920.73 532.735C1911.78 539.342 1900.93 545.611 1892.41 552.767C1875.09 567.326 1851.09 586.57 1836.27 603.693C1830.83 609.972 1826.22 616.808 1821.59 623.672C1820.98 624.567 1820.38 625.463 1819.77 626.359C1816.4 631.325 1813.23 636.455 1811.54 642.266C1809.5 649.307 1822.97 669.133 1828.08 667.924C1839.41 665.247 1836.68 665.518 1847.11 660.238C1860.87 653.274 1857.12 659.548 1852.7 666.95C1849.35 672.542 1857.61 665.705 1860.76 667.363C1863.69 668.909 1869.36 666.709 1871.8 665.313C1875.27 663.327 1878.63 661.16 1882 658.992C1886.18 656.302 1890.35 653.611 1894.74 651.266C1896.9 650.108 1899.1 649.18 1901.41 648.38C1904.64 647.265 1902.15 650.803 1900.85 652.666C1900.6 653.021 1900.39 653.316 1900.27 653.505C1900.05 653.878 1899.28 655.015 1898.18 656.632C1893.23 663.944 1881.64 681.07 1883.44 681.714C1887.47 683.155 1906.32 682.986 1910.39 679.902C1911.37 679.161 1912.23 678.51 1912.91 678.053C1923.86 670.742 1934.16 662.909 1944.2 654.362C1963.25 638.133 1981.8 620.368 1997.59 600.907C1997.93 600.493 1998.35 599.989 1998.84 599.408C2003.97 593.312 2027.41 567.111 2017.57 562C2010.9 558.53 2005.86 561.221 2000.45 564.113C1997.91 565.467 1995.3 566.864 1992.39 567.695C1987.53 569.085 1989.93 562.642 1990.98 559.84C1991.09 559.539 1991.18 559.28 1991.26 559.077C1991.68 557.852 1992.16 556.593 1992.66 555.31C1994.52 550.477 1996.51 545.3 1995.88 540.284C1994.95 532.837 1971.7 524.969 1966.24 525.2C1961.63 525.394 1959.96 525 1958.72 524.708C1957.08 524.323 1956.19 524.112 1950.35 525.637Z" fill="black"/>
<path fill-rule="evenodd" clip-rule="evenodd" d="M2544.17 314.68C2545.02 312.795 2546.05 310.536 2547.55 306.17C2549.34 300.936 2549.12 298.763 2543.47 301.753C2543.2 301.896 2542.47 302.388 2541.48 303.058C2537.5 305.76 2529.23 311.359 2529.23 308.712C2529.23 306.427 2528.69 304.446 2528.13 302.441C2527.57 300.428 2527.01 298.392 2526.99 296.003C2526.91 287.391 2527.5 279.119 2529.23 270.668C2529.64 268.694 2530.23 266.541 2530.83 264.304C2532.43 258.419 2534.19 251.947 2533.27 246.583C2532.26 240.72 2526.27 245.498 2523.69 247.555C2523.61 247.623 2523.53 247.688 2523.45 247.75C2514.59 254.79 2506.31 262.499 2498.03 270.208C2496.23 271.892 2494.42 273.575 2492.61 275.251C2490.08 277.591 2487.54 279.926 2485 282.263C2475.52 290.976 2466.03 299.705 2456.9 308.753C2455.48 310.155 2454.07 311.596 2452.65 313.047C2446.56 319.268 2440.3 325.674 2432.76 329.921C2428.2 332.485 2430.07 326.599 2430.86 324.108C2430.88 324.043 2430.9 323.981 2430.92 323.921C2433.11 317.021 2435.2 310.117 2437.08 303.128C2437.16 302.83 2437.29 302.443 2437.43 301.995C2438.26 299.435 2439.74 294.9 2437 293.836C2433.23 292.367 2426.93 298.61 2424.51 301.006C2424.46 301.063 2424.4 301.117 2424.35 301.169C2423.05 302.456 2421.75 303.744 2420.44 305.033C2409.19 316.154 2397.79 327.426 2387.22 339.13C2359.27 370.09 2332.79 401.339 2309.81 436.26C2296.92 455.837 2282 479.469 2282 503.597C2282 516.132 2296.5 503.599 2302.92 498.055C2304.12 497.019 2305.03 496.227 2305.52 495.888C2307.82 494.284 2309.31 493.645 2308.18 497.138C2307.26 499.97 2306.05 502.602 2304.82 505.244C2303.92 507.19 2303.02 509.141 2302.23 511.181C2299.45 518.395 2300.66 521.895 2308.6 521.306C2312.49 521.017 2316.19 518.24 2319.38 515.846C2319.88 515.472 2320.36 515.108 2320.83 514.764C2327.1 510.193 2332.88 505.036 2338.65 499.876C2343.09 495.918 2347.52 491.959 2352.18 488.263C2352.28 488.177 2352.48 488.015 2352.74 487.795C2355.1 485.802 2363.14 479.039 2365.16 481.179C2367.11 483.242 2363.85 491.387 2362.01 495.958C2361.54 497.123 2361.17 498.056 2361 498.597C2358.32 507.083 2356.04 515.647 2354.76 524.473C2353.76 531.311 2352.46 541.672 2356.5 548.016C2362.95 558.124 2380.01 545.176 2389.06 538.317C2390.78 537.013 2392.2 535.929 2393.21 535.265C2402.34 529.27 2411.5 523.32 2421.1 518.098C2421.35 517.96 2421.63 517.805 2421.92 517.641C2424.3 516.29 2427.81 514.301 2430.17 516.098C2433.79 518.848 2430.54 529.697 2428.5 536.525C2427.85 538.698 2427.32 540.464 2427.18 541.432L2427.16 541.519C2426.8 543.925 2426.27 547.416 2430.01 545.016C2433.32 542.891 2436.08 539.696 2438.74 536.613C2439.81 535.385 2440.85 534.175 2441.91 533.057C2443.39 531.494 2464.34 511.623 2465.39 514.764C2465.88 516.261 2465.53 518.571 2465.19 520.726C2464.99 521.998 2464.8 523.216 2464.8 524.181C2464.8 530.299 2469.41 525.387 2471.59 522.681C2479.23 513.197 2485.46 502.3 2491.6 491.575C2493.65 487.987 2495.69 484.419 2497.77 480.929C2510.25 459.985 2522.09 438.871 2533.31 417.217C2534.72 414.497 2536.21 411.751 2537.71 408.978C2542.89 399.437 2548.23 389.574 2551.13 379.34C2551.7 377.316 2552.47 373.196 2551.29 371.257C2549.82 368.828 2546.49 369.524 2543.76 370.096C2542.84 370.287 2541.99 370.464 2541.3 370.507C2540.36 370.564 2541.24 364.513 2541.64 361.799C2541.73 361.198 2541.79 360.76 2541.8 360.589C2542.16 356.421 2541.79 352.534 2541.22 348.422C2541.17 348.041 2541.12 347.542 2541.08 346.972C2540.81 343.943 2540.37 338.927 2537.47 339.088C2536.83 339.124 2536.21 339.495 2535.59 339.87C2534.67 340.418 2533.74 340.975 2532.69 340.505C2531.4 339.932 2537.93 330.146 2539.96 327.114C2540.2 326.746 2540.38 326.478 2540.47 326.337C2542 319.464 2542.89 317.488 2544.17 314.68ZM2445.68 364.214C2436.1 375.762 2426.43 387.427 2413.1 397.517C2412.76 397.775 2412.38 398.084 2411.96 398.42C2409.22 400.633 2405.01 404.021 2401.84 401.82C2398.8 399.715 2396.85 395.77 2396.62 392.124C2396.5 390.358 2397.51 388.119 2398.52 385.874C2399.79 383.072 2401.06 380.259 2400.15 378.342C2398.67 375.202 2391.71 382.665 2391.07 383.354C2375.78 399.794 2363.9 418.224 2352.38 437.391C2352.32 437.483 2352.23 437.631 2352.11 437.831C2349.7 441.775 2335.12 465.607 2346.72 459.072C2353.17 455.437 2359.28 451.344 2365.37 447.258C2373.92 441.524 2382.45 435.806 2391.88 431.399C2395.96 429.496 2393.42 435.82 2392.78 437.421L2392.75 437.5C2390.95 442.022 2389.49 446.686 2388.03 451.354C2386.7 455.61 2385.37 459.87 2383.77 464.029C2383.44 464.906 2382.84 466.061 2382.17 467.362C2380.15 471.251 2377.46 476.448 2379.04 479.445C2380.82 482.828 2389.96 475.937 2392.18 474.266C2392.33 474.149 2392.45 474.058 2392.53 473.998C2409.63 461.445 2426.97 449.669 2444.77 438.154C2444.88 438.085 2445.01 437.999 2445.16 437.897C2448.93 435.449 2466.37 424.102 2467.95 428.458C2470.15 434.51 2470.53 440.538 2469.42 446.979C2469.36 447.311 2469.2 447.913 2469.01 448.659C2468.35 451.151 2467.27 455.238 2468.17 456.13C2469.89 457.852 2473.92 452.367 2475.58 450.108C2475.88 449.705 2476.1 449.405 2476.22 449.267C2488.03 435.509 2499.19 419.252 2506.15 402.42C2506.3 402.045 2506.53 401.532 2506.8 400.915C2509.21 395.487 2515.2 381.965 2507.12 382.864C2506.84 382.895 2506.24 383.164 2505.5 383.491C2503.6 384.335 2500.83 385.568 2500.49 384.116C2500.04 382.209 2501.23 379.634 2502.19 377.544C2502.5 376.876 2502.79 376.258 2502.99 375.728C2503.59 374.16 2504.23 372.587 2504.88 371.006C2506.4 367.273 2507.95 363.498 2508.92 359.658C2510.58 353.126 2512.26 341.317 2506.91 335.962C2498.09 327.134 2495.12 327.239 2484.44 327.617C2484.09 327.629 2483.74 327.642 2483.37 327.655C2467.42 338.013 2456.62 351.037 2445.68 364.214Z" fill="black"/>
<path d="M2285.77 299.134C2293.74 289.122 2309.19 268.998 2319.11 260.84C2311.78 272.304 2304.2 283.682 2297.05 295.259C2294.96 298.641 2291.63 302.279 2290.81 306.259C2290.49 307.768 2290.98 308.314 2292.18 307.259C2294.67 305.08 2302.02 298.461 2305.5 299.551C2307.6 300.208 2304.21 309.776 2303.79 311.009C2298.91 325.386 2289.28 339.385 2280.98 352.012C2273.81 362.93 2266.72 374.006 2261.21 385.888C2259.67 389.213 2262.62 386.847 2263.67 385.68C2266 383.095 2268.22 380.406 2270.58 377.846C2280.06 367.573 2290.2 357.719 2300.25 348.011C2301.54 346.773 2315.48 333.601 2313.82 339.678C2312.75 343.606 2309.61 346.933 2307.41 350.262C2303 356.933 2298.55 363.565 2294.05 370.179C2280.68 389.865 2267.54 409.516 2252.85 428.266C2233.15 453.4 2213.75 478.767 2194.87 504.52C2192.85 507.275 2154.49 565.521 2149.96 561.44C2147.92 559.599 2152.16 551.51 2152.83 549.939C2156.07 542.306 2160.51 534.865 2164.94 527.854C2166.43 525.503 2171.22 518.212 2166.11 524.104C2160.14 530.983 2153.27 537.538 2146.46 543.564C2144.62 545.19 2138.36 552.71 2135.22 551.814C2133.47 551.312 2138.35 543.36 2138.72 542.689C2162.8 499.599 2189.26 457.885 2213.81 415.057C2220.7 403.02 2228.68 391.658 2236.32 380.096C2241.62 372.079 2248.2 364.897 2253.18 356.679C2253.52 356.118 2258.63 348.512 2255.26 351.762C2250.99 355.88 2246.59 360.213 2241.65 363.512C2236.3 367.082 2239.09 361.925 2240.86 359.054C2245.95 350.804 2251.8 343.08 2257.84 335.511C2267.37 323.567 2276.24 311.095 2285.77 299.134Z" fill="black"/>
<path d="M2336.74 233.166C2339.38 221.59 2348.36 210.687 2356.06 202.241C2358.69 198.546 2366.53 193.35 2370.23 190.66C2372.61 188.933 2375.06 187.334 2377.48 185.664C2377.85 185.409 2381.98 182.789 2380.97 185.06C2379.9 187.49 2377.58 189.415 2376.81 191.996C2375.02 197.975 2386.43 191.827 2388.41 191.614C2392.76 191.145 2387.66 201.289 2387.2 202.814C2385.94 207.007 2390.56 203.386 2392.1 203.386C2393 203.386 2389.84 210.583 2389.56 211.531C2389.38 212.103 2387.34 218.986 2387.76 220.666C2390.1 218.793 2392.2 217.106 2393.84 215.782C2394.3 215.257 2394.78 214.777 2395.28 214.395C2398.82 211.678 2397.5 212.814 2393.84 215.782C2392.13 217.711 2390.54 220.268 2388.22 221.013C2387.98 221.09 2387.83 220.955 2387.76 220.666C2380.24 226.683 2370.22 234.611 2365.15 238.512C2360.74 241.897 2356.25 245.161 2351.48 248.025C2348.77 249.652 2346.85 250.443 2343.92 249.202C2340.28 247.666 2340.51 244.692 2341.76 241.312C2343.23 237.32 2345.62 233.848 2348.5 230.748C2351.48 227.535 2345 231.423 2343.92 232.021C2343.18 232.43 2336.02 236.299 2336.74 233.166Z" fill="black"/>
<path d="M706.184 626.297C706.024 628.847 706.733 630.904 708.312 632.466C709.89 634.028 712.18 635.193 715.18 635.96L727.147 639.089C729.067 639.575 730.407 640.33 731.166 641.353C731.927 642.345 732.259 643.616 732.162 645.165C732.023 647.381 730.993 648.978 729.072 649.955C727.183 650.903 724.508 651.269 721.047 651.052C718.466 650.89 716.137 650.348 714.061 649.425C711.985 648.502 710.369 647.303 709.211 645.829C708.084 644.356 707.574 642.769 707.681 641.069C707.742 640.097 707.63 639.45 707.345 639.127C707.091 638.806 706.706 638.63 706.19 638.597C705.765 638.571 705.373 638.744 705.014 639.118C704.655 639.492 704.451 640.073 704.401 640.863L703.665 651.151C703.632 651.667 703.788 652.103 704.131 652.46C704.475 652.817 704.889 653.011 705.375 653.041C705.831 653.07 706.22 652.942 706.543 652.657C706.897 652.344 707.095 651.869 707.135 651.231L707.306 648.498C708.856 650.516 710.819 652.026 713.195 653.029C715.601 654.033 718.232 654.625 721.086 654.804C725.61 655.088 729.262 654.463 732.04 652.93C734.851 651.369 736.363 648.888 736.577 645.487C736.773 642.36 736.114 639.986 734.6 638.367C733.116 636.75 730.92 635.56 728.01 634.799L716.362 631.691C714.237 631.07 712.776 630.307 711.979 629.404C711.184 628.47 710.83 627.305 710.918 625.908C711.166 621.96 714.508 620.189 720.945 620.592C724.255 620.8 727.019 621.446 729.237 622.53C731.486 623.616 732.96 625.141 733.66 627.105C733.601 628.534 733.659 629.544 733.836 630.134C734.012 630.725 734.48 631.044 735.239 631.091C735.846 631.129 736.295 631.02 736.586 630.764C736.876 630.508 737.07 630.093 737.167 629.52L737.832 620.371C737.876 619.673 737.728 619.115 737.388 618.697C737.048 618.28 736.621 618.055 736.104 618.022C735.588 617.99 735.119 618.174 734.698 618.574C734.278 618.944 734.062 619.479 734.049 620.18L733.943 621.865C733.106 620.623 731.483 619.531 729.073 618.587C726.665 617.613 724.14 617.043 721.498 616.877C717.338 616.617 713.797 617.187 710.874 618.589C707.981 619.993 706.418 622.562 706.184 626.297Z" fill="black"/>
<path d="M766.223 618.51C764.83 618.645 764.195 619.348 764.318 620.62C764.436 621.831 765.115 622.377 766.357 622.256L770.581 621.846C771.572 623.554 773.692 627.291 776.942 633.058C777.568 634.159 779.026 636.738 781.315 640.796C783.604 644.853 785.785 648.584 787.857 651.99L786.017 658.542C785.769 659.452 785.278 660.371 784.542 661.298C783.837 662.223 782.965 662.995 781.924 663.616C780.887 664.267 779.823 664.645 778.733 664.751C776.674 664.95 775.715 665.777 775.856 667.231C775.927 667.957 776.195 668.512 776.66 668.895C777.155 669.275 777.993 669.408 779.174 669.293C782.414 668.979 784.985 667.598 786.888 665.152C788.823 662.732 790.371 659.464 791.53 655.348L801.877 618.81L805.466 618.461C806.738 618.338 807.313 617.655 807.193 616.414C807.072 615.172 806.316 614.619 804.923 614.754L792.886 615.922C791.674 616.04 791.13 616.735 791.254 618.006C791.371 619.218 792.021 619.766 793.202 619.651L797.244 619.259L789.519 647.381L775.305 621.388L779.938 620.938C781.119 620.824 781.651 620.161 781.533 618.95C781.41 617.678 780.728 617.102 779.486 617.223L766.223 618.51Z" fill="black"/>
<path d="M850.616 680.622H843.953C843.345 680.622 842.873 680.804 842.538 681.17C842.204 681.504 842.036 681.915 842.036 682.402C842.036 682.919 842.219 683.375 842.584 683.771C842.949 684.166 843.466 684.364 844.136 684.364H859.88C860.488 684.364 860.96 684.181 861.295 683.816C861.629 683.421 861.797 682.965 861.797 682.447C861.797 681.961 861.629 681.535 861.295 681.17C860.99 680.804 860.549 680.622 859.971 680.622H854.997V660.04C854.997 655.963 853.932 652.814 851.802 650.593C849.673 648.372 846.463 647.262 842.173 647.262C840.104 647.262 838.096 647.612 836.149 648.312C834.202 649.011 832.483 649.97 830.992 651.187C829.502 652.373 828.376 653.712 827.615 655.203L827.387 649.726C827.326 648.54 826.733 647.946 825.607 647.946C825.486 647.946 825.212 647.977 824.786 648.038L817.302 649.544C816.784 649.665 816.404 649.909 816.161 650.274C815.917 650.609 815.796 650.989 815.796 651.415C815.796 651.902 815.963 652.312 816.298 652.647C816.632 652.982 817.058 653.149 817.575 653.149C817.88 653.149 818.184 653.103 818.488 653.012L823.417 652.008V680.622H818.488C817.88 680.622 817.408 680.804 817.073 681.17C816.739 681.504 816.571 681.915 816.571 682.402C816.571 682.919 816.754 683.375 817.119 683.771C817.484 684.166 818.001 684.364 818.671 684.364H832.498C833.198 684.364 833.746 684.181 834.141 683.816C834.567 683.421 834.78 682.965 834.78 682.447C834.78 681.961 834.582 681.535 834.187 681.17C833.822 680.804 833.289 680.622 832.59 680.622H827.798V661.409C827.798 659.827 828.422 658.23 829.669 656.617C830.916 655.005 832.651 653.666 834.871 652.601C837.123 651.537 839.633 651.004 842.401 651.004C845.109 651.004 847.148 651.765 848.517 653.286C849.916 654.807 850.616 656.952 850.616 659.721V680.622Z" fill="black"/>
<path d="M916.214 648.438C916.779 648.563 917.249 648.48 917.625 648.19C918.03 647.906 918.289 647.511 918.401 647.006C918.506 646.531 918.435 646.079 918.187 645.65C917.975 645.198 917.602 644.913 917.068 644.795L900.492 641.125L902.85 630.476C902.994 629.822 902.999 629.309 902.863 628.937C902.734 628.534 902.343 628.26 901.69 628.116C900.828 627.925 900.119 628.173 899.562 628.86C899.041 629.524 898.558 630.648 898.114 632.232C897.67 633.816 897.037 636.465 896.215 640.178L889.665 638.728C889.071 638.597 888.571 638.673 888.165 638.957C887.766 639.211 887.514 639.576 887.409 640.052C887.297 640.557 887.377 641.042 887.648 641.507C887.918 641.972 888.381 642.277 889.034 642.421L895.406 643.832L890.247 667.135C889.925 668.591 890.142 670.072 890.899 671.58C891.686 673.094 892.87 674.431 894.451 675.591C896.069 676.728 897.888 677.521 899.908 677.968C901.898 678.408 903.956 678.615 906.081 678.587C908.2 678.588 910.095 678.4 911.768 678.023C913.477 677.622 914.726 677.119 915.514 676.515C915.708 676.34 915.832 676.134 915.885 675.896C915.996 675.391 915.9 674.84 915.596 674.243C915.292 673.646 914.932 673.301 914.516 673.209C914.308 673.163 914.132 673.186 913.987 673.279C912.324 674.033 910.282 674.531 907.86 674.774C905.474 674.993 903.242 674.873 901.162 674.413C898.875 673.906 897.127 673.005 895.918 671.709C894.746 670.39 894.396 668.661 894.87 666.523L899.683 644.779L916.214 648.438Z" fill="black"/>
<path d="M975.487 681.365L968.837 680.949C968.23 680.911 967.748 681.064 967.391 681.407C967.036 681.721 966.843 682.12 966.813 682.606C966.781 683.122 966.934 683.589 967.274 684.006C967.614 684.424 968.118 684.654 968.786 684.695L984.499 685.677C985.107 685.715 985.589 685.563 985.946 685.219C986.304 684.845 986.5 684.4 986.532 683.884C986.562 683.398 986.422 682.963 986.111 682.577C985.83 682.194 985.401 681.984 984.824 681.948L979.859 681.638L981.143 661.096C981.397 657.027 980.531 653.818 978.544 651.469C976.557 649.119 973.423 647.811 969.141 647.543C967.107 647.416 965.096 647.641 963.109 648.218C961.152 648.797 959.407 649.648 957.874 650.771C956.343 651.864 955.151 653.131 954.299 654.572L955.727 631.707C955.801 630.523 955.216 629.892 953.971 629.814C953.85 629.806 953.544 629.818 953.054 629.848L944.392 630.176C943.904 630.176 943.511 630.364 943.213 630.742C942.946 631.122 942.799 631.524 942.772 631.949C942.742 632.435 942.883 632.855 943.196 633.21C943.511 633.535 943.928 633.698 944.446 633.7L951.213 633.711L948.341 679.668L943.422 679.361C942.814 679.323 942.332 679.476 941.975 679.819C941.621 680.132 941.428 680.532 941.398 681.018C941.365 681.534 941.519 682.001 941.859 682.418C942.198 682.836 942.702 683.065 943.37 683.107L957.171 683.97C957.87 684.013 958.427 683.865 958.845 683.525C959.295 683.157 959.536 682.715 959.568 682.199C959.598 681.713 959.428 681.276 959.056 680.887C958.714 680.499 958.194 680.284 957.496 680.24L952.713 679.941L953.894 661.039C953.995 659.43 954.72 657.829 956.069 656.237C957.419 654.645 959.235 653.386 961.518 652.462C963.833 651.51 966.372 651.12 969.136 651.292C971.838 651.461 973.825 652.347 975.097 653.951C976.398 655.557 976.963 657.741 976.79 660.504L975.487 681.365Z" fill="black"/>
<path d="M1019.3 677.571C1019.12 680.12 1019.81 682.183 1021.37 683.758C1022.94 685.334 1025.22 686.519 1028.21 687.312L1040.15 690.543C1042.07 691.046 1043.4 691.812 1044.15 692.842C1044.9 693.841 1045.22 695.114 1045.11 696.662C1044.95 698.877 1043.91 700.465 1041.98 701.426C1040.08 702.358 1037.41 702.7 1033.95 702.454C1031.37 702.269 1029.04 701.707 1026.98 700.766C1024.91 699.826 1023.3 698.613 1022.16 697.128C1021.04 695.646 1020.55 694.055 1020.67 692.355C1020.74 691.384 1020.63 690.736 1020.35 690.411C1020.1 690.088 1019.71 689.908 1019.2 689.871C1018.77 689.841 1018.38 690.011 1018.02 690.382C1017.66 690.753 1017.45 691.332 1017.39 692.121L1016.56 702.402C1016.53 702.918 1016.68 703.356 1017.02 703.716C1017.36 704.076 1017.77 704.273 1018.26 704.308C1018.71 704.34 1019.1 704.216 1019.43 703.934C1019.79 703.624 1019.99 703.15 1020.03 702.513L1020.23 699.782C1021.76 701.813 1023.71 703.34 1026.08 704.363C1028.48 705.388 1031.1 706.002 1033.95 706.206C1038.47 706.528 1042.13 705.935 1044.92 704.427C1047.75 702.89 1049.28 700.422 1049.52 697.023C1049.75 693.897 1049.11 691.518 1047.61 689.886C1046.14 688.256 1043.95 687.048 1041.05 686.261L1029.43 683.053C1027.31 682.413 1025.85 681.638 1025.07 680.728C1024.28 679.787 1023.94 678.619 1024.03 677.223C1024.32 673.278 1027.67 671.535 1034.11 671.994C1037.42 672.23 1040.17 672.9 1042.38 674.003C1044.62 675.108 1046.08 676.646 1046.77 678.617C1046.69 680.045 1046.74 681.055 1046.92 681.647C1047.09 682.239 1047.55 682.562 1048.31 682.616C1048.92 682.659 1049.37 682.554 1049.66 682.3C1049.95 682.047 1050.15 681.634 1050.25 681.062L1051 671.918C1051.05 671.221 1050.9 670.661 1050.57 670.241C1050.23 669.82 1049.8 669.592 1049.29 669.555C1048.77 669.518 1048.3 669.698 1047.88 670.095C1047.45 670.461 1047.23 670.994 1047.21 671.694L1047.09 673.379C1046.27 672.13 1044.65 671.024 1042.25 670.059C1039.85 669.064 1037.33 668.473 1034.69 668.284C1030.54 667.987 1026.99 668.527 1024.05 669.904C1021.15 671.283 1019.56 673.838 1019.3 677.571Z" fill="black"/>
<path d="M1106.34 668.283C1106.92 668.239 1107.35 668.024 1107.62 667.637C1107.93 667.248 1108.06 666.796 1108.02 666.28C1107.99 665.795 1107.79 665.382 1107.43 665.043C1107.1 664.672 1106.66 664.506 1106.11 664.547L1089.18 665.817L1088.36 654.941C1088.31 654.273 1088.17 653.781 1087.93 653.463C1087.69 653.115 1087.24 652.966 1086.57 653.016C1085.69 653.082 1085.09 653.524 1084.75 654.342C1084.44 655.128 1084.31 656.344 1084.34 657.989C1084.37 659.634 1084.53 662.353 1084.81 666.145L1078.12 666.647C1077.52 666.692 1077.06 666.91 1076.75 667.299C1076.44 667.657 1076.31 668.08 1076.34 668.565C1076.38 669.081 1076.6 669.522 1076.99 669.889C1077.39 670.256 1077.92 670.415 1078.58 670.365L1085.09 669.877L1086.88 693.677C1086.99 695.164 1087.62 696.52 1088.78 697.745C1089.97 698.967 1091.49 699.906 1093.34 700.56C1095.22 701.182 1097.19 701.416 1099.25 701.261C1101.29 701.109 1103.32 700.712 1105.34 700.072C1107.37 699.462 1109.13 698.735 1110.62 697.891C1112.15 697.014 1113.2 696.173 1113.78 695.367C1113.91 695.143 1113.97 694.91 1113.95 694.667C1113.91 694.151 1113.66 693.651 1113.2 693.167C1112.74 692.684 1112.29 692.458 1111.87 692.489C1111.65 692.505 1111.49 692.579 1111.38 692.709C1110.01 693.91 1108.19 694.977 1105.95 695.908C1103.72 696.807 1101.55 697.336 1099.43 697.495C1097.09 697.671 1095.16 697.312 1093.63 696.42C1092.12 695.496 1091.29 693.941 1091.13 691.757L1089.46 669.549L1106.34 668.283Z" fill="black"/>
<path d="M1153.64 658.662C1153.64 658.236 1153.49 657.871 1153.18 657.567C1152.91 657.262 1152.54 657.11 1152.09 657.11C1151.97 657.11 1151.78 657.141 1151.54 657.201L1143.55 658.799C1143.01 658.92 1142.6 659.133 1142.32 659.438C1142.05 659.742 1141.91 660.107 1141.91 660.533C1141.91 661.05 1142.11 661.506 1142.5 661.902C1142.9 662.297 1143.4 662.495 1144.01 662.495C1144.34 662.495 1144.6 662.465 1144.79 662.404L1149.26 661.491V681.754C1149.26 684.279 1149.78 686.5 1150.81 688.417C1151.87 690.333 1153.41 691.824 1155.42 692.889C1157.43 693.954 1159.8 694.486 1162.54 694.486C1165.4 694.486 1168.15 693.832 1170.8 692.524C1173.45 691.216 1175.44 689.573 1176.78 687.595L1177 691.565C1177.04 692.326 1177.25 692.904 1177.64 693.3C1178.04 693.665 1178.54 693.847 1179.15 693.847H1179.47L1187.96 692.934C1188.5 692.813 1188.93 692.569 1189.24 692.204C1189.54 691.809 1189.69 691.383 1189.69 690.926C1189.69 690.47 1189.54 690.09 1189.24 689.786C1188.93 689.481 1188.47 689.329 1187.87 689.329H1187.59L1180.84 689.831V658.662C1180.84 658.236 1180.69 657.871 1180.38 657.567C1180.11 657.262 1179.74 657.11 1179.29 657.11C1179.16 657.11 1178.98 657.141 1178.74 657.201L1170.8 658.799C1170.22 658.92 1169.78 659.149 1169.47 659.483C1169.2 659.788 1169.06 660.153 1169.06 660.579C1169.06 661.096 1169.26 661.552 1169.66 661.948C1170.05 662.343 1170.57 662.541 1171.21 662.541C1171.48 662.541 1171.76 662.495 1172.03 662.404L1176.46 661.491V683.168C1175.79 684.568 1174.69 685.846 1173.17 687.002C1171.68 688.158 1169.99 689.071 1168.11 689.74C1166.22 690.409 1164.38 690.744 1162.58 690.744C1159.63 690.744 1157.4 689.938 1155.88 688.325C1154.38 686.682 1153.64 684.537 1153.64 681.891V658.662Z" fill="black"/>
<path d="M1240.91 724.372L1249.44 723.979C1250 723.891 1250.44 723.674 1250.76 723.328C1251.09 722.952 1251.27 722.536 1251.29 722.08C1251.32 721.625 1251.19 721.236 1250.91 720.914C1250.62 720.591 1250.18 720.412 1249.57 720.375L1249.3 720.358L1242.52 720.447L1245.47 672.345C1245.54 671.161 1244.95 670.53 1243.71 670.454C1243.59 670.447 1243.28 670.459 1242.79 670.49L1234.13 670.829C1233.61 670.888 1233.21 671.093 1232.95 671.442C1232.68 671.792 1232.54 672.179 1232.51 672.604C1232.48 673.09 1232.62 673.51 1232.94 673.865C1233.25 674.219 1233.67 674.412 1234.18 674.444C1234.36 674.455 1234.53 674.45 1234.69 674.429C1234.84 674.408 1234.98 674.386 1235.1 674.363L1240.95 674.355L1239.88 691.847C1238.16 690.156 1236.3 688.839 1234.32 687.894C1232.37 686.952 1230.01 686.396 1227.24 686.227C1223.75 686.014 1220.65 686.647 1217.94 688.127C1215.26 689.579 1213.13 691.704 1211.56 694.504C1209.99 697.273 1209.09 700.464 1208.87 704.078C1208.64 707.752 1209.14 711.06 1210.37 714C1211.59 716.94 1213.44 719.293 1215.92 721.06C1218.44 722.83 1221.44 723.821 1224.93 724.035C1227.72 724.205 1230.32 723.846 1232.72 722.957C1235.16 722.038 1237.12 720.787 1238.62 719.202L1238.59 721.944C1238.58 722.705 1238.75 723.295 1239.12 723.714C1239.5 724.102 1239.99 724.315 1240.59 724.352L1240.91 724.372ZM1227.29 689.979C1232.6 690.304 1236.7 692.521 1239.59 696.63L1238.5 714.485C1235.16 718.701 1230.75 720.641 1225.25 720.305C1222.52 720.138 1220.22 719.312 1218.36 717.826C1216.5 716.341 1215.14 714.414 1214.28 712.044C1213.42 709.675 1213.07 707.109 1213.24 704.345C1213.41 701.582 1214.07 699.077 1215.21 696.83C1216.35 694.584 1217.95 692.837 1220.01 691.592C1222.07 690.346 1224.49 689.808 1227.29 689.979Z" fill="black"/>
<path d="M1286.66 671.164C1286.8 672.189 1287.28 673.015 1288.1 673.642C1288.92 674.269 1289.86 674.512 1290.91 674.37C1291.97 674.229 1292.79 673.75 1293.39 672.934C1294.02 672.113 1294.26 671.19 1294.13 670.165C1293.98 669.109 1293.5 668.268 1292.68 667.641C1291.86 667.015 1290.94 666.77 1289.91 666.907C1288.89 667.044 1288.05 667.525 1287.39 668.35C1286.76 669.17 1286.52 670.108 1286.66 671.164ZM1315.05 717.459C1315.62 717.382 1316.05 717.141 1316.34 716.734C1316.62 716.328 1316.73 715.869 1316.66 715.356C1316.59 714.874 1316.37 714.474 1315.99 714.156C1315.64 713.804 1315.17 713.667 1314.6 713.744L1299.54 715.76L1295.32 684.233C1295.26 683.78 1295.06 683.454 1294.73 683.253C1294.39 683.022 1293.98 682.939 1293.5 683.003C1293.25 683.035 1293.09 683.073 1293 683.115L1275.33 688.012C1274.86 688.137 1274.53 688.397 1274.33 688.791C1274.14 689.155 1274.07 689.563 1274.13 690.015C1274.2 690.528 1274.42 690.958 1274.81 691.306C1275.19 691.623 1275.66 691.744 1276.24 691.667L1276.55 691.579L1291.34 687.528L1295.2 716.341L1278.37 718.593C1277.77 718.674 1277.32 718.917 1277.04 719.324C1276.75 719.7 1276.64 720.129 1276.7 720.612C1276.77 721.124 1277.01 721.552 1277.43 721.896C1277.84 722.239 1278.38 722.367 1279.05 722.278L1315.05 717.459Z" fill="black"/>
<path d="M1335.14 705.922C1335.14 709.725 1335.95 713.057 1337.56 715.917C1339.17 718.777 1341.44 720.982 1344.36 722.534C1347.28 724.086 1350.66 724.861 1354.49 724.861C1358.33 724.861 1361.7 724.086 1364.62 722.534C1367.54 720.982 1369.81 718.777 1371.42 715.917C1373.04 713.057 1373.84 709.725 1373.84 705.922C1373.84 702.089 1373.04 698.742 1371.42 695.883C1369.81 693.023 1367.54 690.832 1364.62 689.311C1361.7 687.759 1358.33 686.984 1354.49 686.984C1350.66 686.984 1347.28 687.759 1344.36 689.311C1341.44 690.832 1339.17 693.023 1337.56 695.883C1335.95 698.742 1335.14 702.089 1335.14 705.922ZM1340.07 705.922C1340.07 702.971 1340.63 700.355 1341.76 698.073C1342.92 695.761 1344.57 693.966 1346.73 692.688C1348.92 691.38 1351.51 690.726 1354.49 690.726C1357.47 690.726 1360.04 691.38 1362.2 692.688C1364.4 693.966 1366.05 695.761 1367.18 698.073C1368.34 700.355 1368.91 702.971 1368.91 705.922C1368.91 708.904 1368.34 711.551 1367.18 713.863C1366.05 716.145 1364.4 717.925 1362.2 719.203C1360.04 720.48 1357.47 721.119 1354.49 721.119C1351.51 721.119 1348.92 720.48 1346.73 719.203C1344.57 717.925 1342.92 716.145 1341.76 713.863C1340.63 711.551 1340.07 708.904 1340.07 705.922Z" fill="black"/>
<path d="M1408.4 698.995C1408.4 697.626 1407.93 696.485 1406.98 695.572C1406.07 694.629 1404.93 694.158 1403.56 694.158C1402.19 694.158 1401.03 694.614 1400.09 695.527C1399.18 696.439 1398.72 697.595 1398.72 698.995C1398.72 700.394 1399.18 701.551 1400.09 702.463C1401 703.346 1402.16 703.787 1403.56 703.787C1404.93 703.787 1406.07 703.33 1406.98 702.418C1407.93 701.505 1408.4 700.364 1408.4 698.995Z" fill="black"/>
<path d="M1480.17 688.617L1476.84 688.845C1471.88 689.18 1467.93 689.606 1464.98 690.123C1462.06 690.641 1459.59 691.705 1457.58 693.318C1455.58 694.93 1454.57 697.319 1454.57 700.483C1454.57 703.616 1455.53 706.126 1457.45 708.013C1459.36 709.868 1462.03 710.796 1465.43 710.796C1468.6 710.796 1471.52 710.234 1474.2 709.108C1476.9 707.982 1479 706.583 1480.49 704.909C1480.86 707.069 1481.57 708.53 1482.64 709.29C1483.7 710.021 1485.01 710.386 1486.56 710.386C1487.93 710.386 1489.24 710.097 1490.49 709.519C1491.77 708.91 1492.89 708.089 1493.86 707.054C1494.17 706.75 1494.32 706.37 1494.32 705.913C1494.32 705.427 1494.15 704.985 1493.82 704.59C1493.48 704.194 1493.09 703.997 1492.63 703.997C1492.24 703.997 1491.87 704.179 1491.54 704.544C1491.02 705.092 1490.32 705.609 1489.44 706.096C1488.56 706.552 1487.72 706.78 1486.93 706.78C1486.2 706.78 1485.62 706.598 1485.19 706.233C1484.77 705.837 1484.55 705.107 1484.55 704.042V689.804C1484.55 686.092 1484.16 683.019 1483.37 680.585C1482.58 678.121 1481.18 676.235 1479.17 674.926C1477.19 673.618 1474.45 672.964 1470.96 672.964C1467.85 672.964 1465.1 673.375 1462.7 674.196C1460.29 675.018 1458.42 676.159 1457.08 677.619C1455.74 679.079 1455.07 680.722 1455.07 682.548C1455.07 683.521 1455.3 684.312 1455.76 684.921C1456.25 685.529 1456.93 685.834 1457.81 685.834C1458.85 685.834 1459.58 685.24 1460 684.054C1460.43 682.867 1460.7 681.103 1460.82 678.76C1462.44 678.03 1464.03 677.513 1465.62 677.208C1467.23 676.874 1468.99 676.706 1470.91 676.706C1474.32 676.706 1476.71 677.649 1478.07 679.536C1479.47 681.422 1480.17 684.145 1480.17 687.705V688.617ZM1480.17 701.441C1478.53 703.175 1476.42 704.559 1473.83 705.594C1471.27 706.598 1468.64 707.1 1465.94 707.1C1463.84 707.1 1462.15 706.583 1460.87 705.548C1459.62 704.483 1459 702.795 1459 700.483C1459 698.353 1459.73 696.741 1461.19 695.645C1462.65 694.55 1464.61 693.789 1467.08 693.363C1469.57 692.907 1473.31 692.436 1478.3 691.949L1480.17 691.766V701.441Z" fill="black"/>
<path d="M1562.23 697.143C1562.18 697.902 1562.35 698.509 1562.75 698.963C1563.15 699.386 1563.63 699.618 1564.21 699.658C1564.82 699.699 1565.35 699.522 1565.8 699.126C1566.29 698.702 1566.56 698.08 1566.62 697.261L1567.05 690.978C1567.11 690.067 1566.85 689.364 1566.28 688.867C1565.7 688.37 1564.69 688.071 1563.23 687.971C1554.79 687.393 1548.66 689.641 1544.83 694.716L1544.98 689.968C1545 689.116 1544.91 688.469 1544.7 688.028C1544.51 687.588 1544.09 687.346 1543.42 687.3C1543.12 687.279 1542.77 687.301 1542.37 687.365L1534.47 688.379C1534.04 688.441 1533.69 688.63 1533.43 688.948C1533.16 689.235 1533.02 689.59 1532.99 690.015C1532.96 690.501 1533.08 690.936 1533.36 691.321C1533.67 691.709 1534.11 691.922 1534.69 691.961C1534.93 691.978 1535.11 691.975 1535.23 691.953L1540.87 691.196L1538.91 719.743L1530.58 719.171C1529.97 719.13 1529.49 719.28 1529.13 719.621C1528.77 719.962 1528.57 720.376 1528.54 720.862C1528.51 721.378 1528.66 721.845 1528.99 722.265C1529.33 722.654 1529.84 722.872 1530.5 722.917L1558.28 724.821C1558.85 724.861 1559.32 724.71 1559.68 724.369C1560.04 723.997 1560.24 723.568 1560.27 723.083C1560.31 722.567 1560.17 722.115 1559.86 721.728C1559.58 721.343 1559.16 721.131 1558.58 721.091L1543.28 720.042L1544.67 699.827C1546.09 696.875 1548.42 694.717 1551.65 693.353C1554.89 691.959 1558.54 691.401 1562.61 691.68L1562.23 697.143Z" fill="black"/>
<path d="M1625.07 717.365C1625.64 717.322 1626.07 717.108 1626.35 716.721C1626.65 716.332 1626.79 715.88 1626.75 715.364C1626.72 714.879 1626.52 714.466 1626.16 714.127C1625.82 713.755 1625.38 713.589 1624.84 713.629L1607.91 714.878L1607.11 704C1607.06 703.333 1606.91 702.84 1606.68 702.522C1606.44 702.173 1605.98 702.024 1605.32 702.073C1604.44 702.138 1603.83 702.579 1603.49 703.397C1603.18 704.182 1603.04 705.398 1603.07 707.043C1603.1 708.688 1603.26 711.407 1603.54 715.2L1596.85 715.693C1596.24 715.738 1595.78 715.954 1595.48 716.343C1595.17 716.702 1595.03 717.123 1595.07 717.609C1595.11 718.125 1595.32 718.566 1595.71 718.934C1596.11 719.302 1596.64 719.461 1597.31 719.412L1603.81 718.932L1605.57 742.735C1605.68 744.221 1606.31 745.578 1607.47 746.804C1608.66 748.029 1610.18 748.969 1612.03 749.626C1613.9 750.25 1615.87 750.486 1617.94 750.334C1619.97 750.184 1622 749.791 1624.03 749.153C1626.06 748.546 1627.82 747.821 1629.31 746.979C1630.83 746.104 1631.88 745.264 1632.47 744.458C1632.6 744.235 1632.66 744.001 1632.64 743.759C1632.6 743.243 1632.35 742.743 1631.89 742.258C1631.43 741.774 1630.98 741.547 1630.56 741.578C1630.35 741.594 1630.19 741.667 1630.07 741.797C1628.7 742.997 1626.88 744.061 1624.63 744.99C1622.41 745.886 1620.24 746.412 1618.12 746.569C1615.78 746.741 1613.85 746.38 1612.32 745.486C1610.81 744.56 1609.98 743.004 1609.82 740.82L1608.18 718.61L1625.07 717.365Z" fill="black"/>
<defs>
<linearGradient id="paint0_linear_418_461" x1="36.8973" y1="824.749" x2="831.837" y2="771.094" gradientUnits="userSpaceOnUse">
<stop stop-color="#FF2876"/>
<stop offset="0.489583" stop-color="#FF62DC"/>
<stop offset="1" stop-color="#FFC632"/>
</linearGradient>
</defs>
</svg>
